<?xml version="1.0" encoding="iso-8859-1"?>
<!-- Generator: Adobe Illustrator 19.0.0, SVG Export Plug-In . SVG Version: 6.00 Build 0)  -->
<svg version="1.1" id="Capa_1" xmlns="http://www.w3.org/2000/svg" xmlns:xlink="http://www.w3.org/1999/xlink" x="0px" y="0px"
	 viewBox="0 0 375 375" style="enable-background:new 0 0 375 375;" xml:space="preserve">
<g>
	<g>
		<path d="M187.5,0C84.1,0,0,84.1,0,187.5S84.1,375,187.5,375S375,290.9,375,187.5S290.9,0,187.5,0z M187.5,337.5
			c-82.7,0-150-67.3-150-150s67.3-150,150-150s150,67.3,150,150S270.2,337.5,187.5,337.5z"/>
	</g>
</g>
<g>
	<g>
		<path d="M150,150L93.7,281.3L225,225l56.3-131.3L150,150z M187.5,206.3c-10.4,0-18.8-8.4-18.8-18.8c0-10.4,8.4-18.8,18.8-18.8
			s18.8,8.4,18.8,18.8C206.3,197.9,197.9,206.3,187.5,206.3z"/>
	</g>
</g>
<g>
</g>
<g>
</g>
<g>
</g>
<g>
</g>
<g>
</g>
<g>
</g>
<g>
</g>
<g>
</g>
<g>
</g>
<g>
</g>
<g>
</g>
<g>
</g>
<g>
</g>
<g>
</g>
<g>
</g>
</svg>
