<svg xmlns="http://www.w3.org/2000/svg" xmlns:xlink="http://www.w3.org/1999/xlink" width="512" zoomAndPan="magnify" viewBox="0 0 384 95.999999" height="128" preserveAspectRatio="xMidYMid meet" version="1.2"><defs><clipPath id="3982c74054"><path d="M 9.601562 20.128906 L 71.101562 20.128906 L 71.101562 83.097656 L 9.601562 83.097656 Z M 9.601562 20.128906 "/></clipPath></defs><g id="442fc7bc04"><g style="fill:#ffffff;fill-opacity:1;"><g transform="translate(84.05063, 58.459163)"><path style="stroke:none" d="M 3.34375 0 L 3.34375 -27.609375 L 12.671875 -27.609375 C 14.828125 -27.609375 16.59375 -27.238281 17.96875 -26.5 C 19.351562 -25.769531 20.378906 -24.765625 21.046875 -23.484375 C 21.710938 -22.210938 22.046875 -20.765625 22.046875 -19.140625 C 22.046875 -17.304688 21.625 -15.707031 20.78125 -14.34375 C 19.945312 -12.988281 18.648438 -12.007812 16.890625 -11.40625 L 23.125 0 L 19.25 0 L 13.421875 -10.796875 C 13.203125 -10.785156 12.96875 -10.78125 12.71875 -10.78125 L 6.6875 -10.78125 L 6.6875 0 Z M 6.6875 -13.796875 L 12.609375 -13.796875 C 14.828125 -13.796875 16.40625 -14.269531 17.34375 -15.21875 C 18.289062 -16.175781 18.765625 -17.484375 18.765625 -19.140625 C 18.765625 -20.796875 18.289062 -22.125 17.34375 -23.125 C 16.394531 -24.132812 14.800781 -24.640625 12.5625 -24.640625 L 6.6875 -24.640625 Z M 6.6875 -13.796875 "/></g></g><g style="fill:#ffffff;fill-opacity:1;"><g transform="translate(108.30542, 58.459163)"><path style="stroke:none" d="M 6.6875 -27.609375 L 6.6875 0 L 3.34375 0 L 3.34375 -27.609375 Z M 6.6875 -27.609375 "/></g></g><g style="fill:#ffffff;fill-opacity:1;"><g transform="translate(118.33073, 58.459163)"><path style="stroke:none" d="M 25.546875 -18.96875 L 22.21875 -18.96875 C 21.945312 -20.25 21.425781 -21.320312 20.65625 -22.1875 C 19.894531 -23.0625 18.972656 -23.722656 17.890625 -24.171875 C 16.816406 -24.628906 15.671875 -24.859375 14.453125 -24.859375 C 12.773438 -24.859375 11.257812 -24.429688 9.90625 -23.578125 C 8.5625 -22.734375 7.488281 -21.488281 6.6875 -19.84375 C 5.894531 -18.207031 5.5 -16.191406 5.5 -13.796875 C 5.5 -11.410156 5.894531 -9.394531 6.6875 -7.75 C 7.488281 -6.101562 8.5625 -4.859375 9.90625 -4.015625 C 11.257812 -3.171875 12.773438 -2.75 14.453125 -2.75 C 15.671875 -2.75 16.816406 -2.972656 17.890625 -3.421875 C 18.972656 -3.867188 19.894531 -4.53125 20.65625 -5.40625 C 21.425781 -6.28125 21.945312 -7.351562 22.21875 -8.625 L 25.546875 -8.625 C 25.210938 -6.738281 24.519531 -5.125 23.46875 -3.78125 C 22.414062 -2.4375 21.109375 -1.40625 19.546875 -0.6875 C 17.992188 0.0195312 16.296875 0.375 14.453125 0.375 C 12.097656 0.375 10.003906 -0.195312 8.171875 -1.34375 C 6.335938 -2.5 4.894531 -4.132812 3.84375 -6.25 C 2.789062 -8.375 2.265625 -10.890625 2.265625 -13.796875 C 2.265625 -16.710938 2.789062 -19.226562 3.84375 -21.34375 C 4.894531 -23.46875 6.335938 -25.101562 8.171875 -26.25 C 10.003906 -27.40625 12.097656 -27.984375 14.453125 -27.984375 C 16.296875 -27.984375 17.992188 -27.625 19.546875 -26.90625 C 21.109375 -26.195312 22.414062 -25.171875 23.46875 -23.828125 C 24.519531 -22.484375 25.210938 -20.863281 25.546875 -18.96875 Z M 25.546875 -18.96875 "/></g></g><g style="fill:#ffffff;fill-opacity:1;"><g transform="translate(145.927286, 58.459163)"><path style="stroke:none" d="M 4.46875 0 L 0.96875 0 L 11.109375 -27.609375 L 14.5625 -27.609375 L 24.6875 0 L 21.1875 0 L 18.40625 -7.8125 L 7.25 -7.8125 Z M 8.296875 -10.78125 L 17.359375 -10.78125 L 12.9375 -23.234375 L 12.71875 -23.234375 Z M 8.296875 -10.78125 "/></g></g><g style="fill:#ffffff;fill-opacity:1;"><g transform="translate(171.583462, 58.459163)"><path style="stroke:none" d="M 3.34375 0 L 3.34375 -27.609375 L 12.671875 -27.609375 C 14.828125 -27.609375 16.59375 -27.238281 17.96875 -26.5 C 19.351562 -25.769531 20.378906 -24.765625 21.046875 -23.484375 C 21.710938 -22.210938 22.046875 -20.765625 22.046875 -19.140625 C 22.046875 -17.304688 21.625 -15.707031 20.78125 -14.34375 C 19.945312 -12.988281 18.648438 -12.007812 16.890625 -11.40625 L 23.125 0 L 19.25 0 L 13.421875 -10.796875 C 13.203125 -10.785156 12.96875 -10.78125 12.71875 -10.78125 L 6.6875 -10.78125 L 6.6875 0 Z M 6.6875 -13.796875 L 12.609375 -13.796875 C 14.828125 -13.796875 16.40625 -14.269531 17.34375 -15.21875 C 18.289062 -16.175781 18.765625 -17.484375 18.765625 -19.140625 C 18.765625 -20.796875 18.289062 -22.125 17.34375 -23.125 C 16.394531 -24.132812 14.800781 -24.640625 12.5625 -24.640625 L 6.6875 -24.640625 Z M 6.6875 -13.796875 "/></g></g><g style="fill:#ffffff;fill-opacity:1;"><g transform="translate(195.838252, 58.459163)"><path style="stroke:none" d="M 11.859375 0 L 3.34375 0 L 3.34375 -27.609375 L 12.234375 -27.609375 C 14.910156 -27.609375 17.203125 -27.054688 19.109375 -25.953125 C 21.015625 -24.847656 22.472656 -23.269531 23.484375 -21.21875 C 24.503906 -19.164062 25.015625 -16.710938 25.015625 -13.859375 C 25.015625 -10.984375 24.5 -8.507812 23.46875 -6.4375 C 22.445312 -4.363281 20.957031 -2.769531 19 -1.65625 C 17.039062 -0.550781 14.660156 0 11.859375 0 Z M 6.6875 -2.96875 L 11.640625 -2.96875 C 15.066406 -2.96875 17.613281 -3.9375 19.28125 -5.875 C 20.945312 -7.820312 21.78125 -10.484375 21.78125 -13.859375 C 21.78125 -17.203125 20.960938 -19.832031 19.328125 -21.75 C 17.691406 -23.675781 15.253906 -24.640625 12.015625 -24.640625 L 6.6875 -24.640625 Z M 6.6875 -2.96875 "/></g></g><g style="fill:#ffffff;fill-opacity:1;"><g transform="translate(223.11141, 58.459163)"><path style="stroke:none" d="M 26.625 -13.796875 C 26.625 -10.890625 26.097656 -8.375 25.046875 -6.25 C 24.003906 -4.132812 22.566406 -2.5 20.734375 -1.34375 C 18.898438 -0.195312 16.804688 0.375 14.453125 0.375 C 12.097656 0.375 10.003906 -0.195312 8.171875 -1.34375 C 6.335938 -2.5 4.894531 -4.132812 3.84375 -6.25 C 2.789062 -8.375 2.265625 -10.890625 2.265625 -13.796875 C 2.265625 -16.710938 2.789062 -19.226562 3.84375 -21.34375 C 4.894531 -23.46875 6.335938 -25.101562 8.171875 -26.25 C 10.003906 -27.40625 12.097656 -27.984375 14.453125 -27.984375 C 16.804688 -27.984375 18.898438 -27.40625 20.734375 -26.25 C 22.566406 -25.101562 24.003906 -23.46875 25.046875 -21.34375 C 26.097656 -19.226562 26.625 -16.710938 26.625 -13.796875 Z M 23.390625 -13.796875 C 23.390625 -16.191406 22.992188 -18.207031 22.203125 -19.84375 C 21.410156 -21.488281 20.335938 -22.734375 18.984375 -23.578125 C 17.628906 -24.429688 16.117188 -24.859375 14.453125 -24.859375 C 12.773438 -24.859375 11.257812 -24.429688 9.90625 -23.578125 C 8.5625 -22.734375 7.488281 -21.488281 6.6875 -19.84375 C 5.894531 -18.207031 5.5 -16.191406 5.5 -13.796875 C 5.5 -11.410156 5.894531 -9.394531 6.6875 -7.75 C 7.488281 -6.101562 8.5625 -4.859375 9.90625 -4.015625 C 11.257812 -3.171875 12.773438 -2.75 14.453125 -2.75 C 16.117188 -2.75 17.628906 -3.171875 18.984375 -4.015625 C 20.335938 -4.859375 21.410156 -6.101562 22.203125 -7.75 C 22.992188 -9.394531 23.390625 -11.410156 23.390625 -13.796875 Z M 23.390625 -13.796875 "/></g></g><g style="fill:#ffffff;fill-opacity:1;"><g transform="translate(262.673668, 58.459163)"><path style="stroke:none" d="M 25.546875 -18.96875 L 22.21875 -18.96875 C 21.945312 -20.25 21.425781 -21.320312 20.65625 -22.1875 C 19.894531 -23.0625 18.972656 -23.722656 17.890625 -24.171875 C 16.816406 -24.628906 15.671875 -24.859375 14.453125 -24.859375 C 12.773438 -24.859375 11.257812 -24.429688 9.90625 -23.578125 C 8.5625 -22.734375 7.488281 -21.488281 6.6875 -19.84375 C 5.894531 -18.207031 5.5 -16.191406 5.5 -13.796875 C 5.5 -11.410156 5.894531 -9.394531 6.6875 -7.75 C 7.488281 -6.101562 8.5625 -4.859375 9.90625 -4.015625 C 11.257812 -3.171875 12.773438 -2.75 14.453125 -2.75 C 15.671875 -2.75 16.816406 -2.972656 17.890625 -3.421875 C 18.972656 -3.867188 19.894531 -4.53125 20.65625 -5.40625 C 21.425781 -6.28125 21.945312 -7.351562 22.21875 -8.625 L 25.546875 -8.625 C 25.210938 -6.738281 24.519531 -5.125 23.46875 -3.78125 C 22.414062 -2.4375 21.109375 -1.40625 19.546875 -0.6875 C 17.992188 0.0195312 16.296875 0.375 14.453125 0.375 C 12.097656 0.375 10.003906 -0.195312 8.171875 -1.34375 C 6.335938 -2.5 4.894531 -4.132812 3.84375 -6.25 C 2.789062 -8.375 2.265625 -10.890625 2.265625 -13.796875 C 2.265625 -16.710938 2.789062 -19.226562 3.84375 -21.34375 C 4.894531 -23.46875 6.335938 -25.101562 8.171875 -26.25 C 10.003906 -27.40625 12.097656 -27.984375 14.453125 -27.984375 C 16.296875 -27.984375 17.992188 -27.625 19.546875 -26.90625 C 21.109375 -26.195312 22.414062 -25.171875 23.46875 -23.828125 C 24.519531 -22.484375 25.210938 -20.863281 25.546875 -18.96875 Z M 25.546875 -18.96875 "/></g></g><g style="fill:#ffffff;fill-opacity:1;"><g transform="translate(290.270224, 58.459163)"><path style="stroke:none" d="M 3.34375 0 L 3.34375 -27.609375 L 12.671875 -27.609375 C 14.828125 -27.609375 16.59375 -27.238281 17.96875 -26.5 C 19.351562 -25.769531 20.378906 -24.765625 21.046875 -23.484375 C 21.710938 -22.210938 22.046875 -20.765625 22.046875 -19.140625 C 22.046875 -17.304688 21.625 -15.707031 20.78125 -14.34375 C 19.945312 -12.988281 18.648438 -12.007812 16.890625 -11.40625 L 23.125 0 L 19.25 0 L 13.421875 -10.796875 C 13.203125 -10.785156 12.96875 -10.78125 12.71875 -10.78125 L 6.6875 -10.78125 L 6.6875 0 Z M 6.6875 -13.796875 L 12.609375 -13.796875 C 14.828125 -13.796875 16.40625 -14.269531 17.34375 -15.21875 C 18.289062 -16.175781 18.765625 -17.484375 18.765625 -19.140625 C 18.765625 -20.796875 18.289062 -22.125 17.34375 -23.125 C 16.394531 -24.132812 14.800781 -24.640625 12.5625 -24.640625 L 6.6875 -24.640625 Z M 6.6875 -13.796875 "/></g></g><g style="fill:#ffffff;fill-opacity:1;"><g transform="translate(314.525014, 58.459163)"><path style="stroke:none" d="M 21.453125 -27.609375 L 24.796875 -27.609375 L 24.796875 -9.328125 C 24.796875 -7.265625 24.304688 -5.5 23.328125 -4.03125 C 22.347656 -2.5625 21.046875 -1.441406 19.421875 -0.671875 C 17.796875 0.0976562 16.015625 0.484375 14.078125 0.484375 C 12.128906 0.484375 10.34375 0.0976562 8.71875 -0.671875 C 7.09375 -1.441406 5.789062 -2.5625 4.8125 -4.03125 C 3.832031 -5.5 3.34375 -7.265625 3.34375 -9.328125 L 3.34375 -27.609375 L 6.6875 -27.609375 L 6.6875 -9.328125 C 6.6875 -7.890625 7.023438 -6.671875 7.703125 -5.671875 C 8.390625 -4.679688 9.296875 -3.925781 10.421875 -3.40625 C 11.546875 -2.894531 12.765625 -2.640625 14.078125 -2.640625 C 15.378906 -2.640625 16.59375 -2.894531 17.71875 -3.40625 C 18.84375 -3.925781 19.742188 -4.679688 20.421875 -5.671875 C 21.109375 -6.671875 21.453125 -7.890625 21.453125 -9.328125 Z M 21.453125 -27.609375 "/></g></g><g style="fill:#ffffff;fill-opacity:1;"><g transform="translate(342.660565, 58.459163)"><path style="stroke:none" d="M 2.421875 0 L 2.421875 -2.421875 L 17.3125 -24.640625 L 2.265625 -24.640625 L 2.265625 -27.609375 L 21.296875 -27.609375 L 21.296875 -25.171875 L 6.421875 -2.96875 L 21.453125 -2.96875 L 21.453125 0 Z M 2.421875 0 "/></g></g><g clip-rule="nonzero" clip-path="url(#3982c74054)"><path style="fill:none;stroke-width:8;stroke-linecap:butt;stroke-linejoin:miter;stroke:#ffffff;stroke-opacity:1;stroke-miterlimit:4;" d="M 0.00209204 0.000760933 L 82.423964 0.000760933 L 82.423964 84.391042 L 0.00209204 84.391042 Z M 0.00209204 0.000760933 " transform="matrix(0.746161,0,0,0.746161,9.600002,20.128338)"/></g><g style="fill:#ffffff;fill-opacity:1;"><g transform="translate(21.332249, 57.055008)"><path style="stroke:none" d="M 1.59375 0 L 1.59375 -18.265625 L 8.796875 -18.265625 C 10.867188 -18.265625 12.476562 -17.722656 13.625 -16.640625 C 14.769531 -15.554688 15.34375 -14.109375 15.34375 -12.296875 C 15.34375 -11.046875 15.0625 -9.976562 14.5 -9.09375 C 13.945312 -8.207031 13.148438 -7.539062 12.109375 -7.09375 L 15.984375 0 L 11.71875 0 L 8.265625 -6.46875 L 5.453125 -6.46875 L 5.453125 0 Z M 5.453125 -9.578125 L 8.0625 -9.578125 C 10.257812 -9.578125 11.359375 -10.484375 11.359375 -12.296875 C 11.359375 -14.171875 10.253906 -15.109375 8.046875 -15.109375 L 5.453125 -15.109375 Z M 5.453125 -9.578125 "/></g></g><g style="fill:#ffffff;fill-opacity:1;"><g transform="translate(40.798183, 57.055008)"><path style="stroke:none" d="M 17.703125 -11.875 L 13.796875 -11.875 C 13.648438 -12.875 13.222656 -13.660156 12.515625 -14.234375 C 11.804688 -14.804688 10.921875 -15.09375 9.859375 -15.09375 C 8.441406 -15.09375 7.304688 -14.570312 6.453125 -13.53125 C 5.609375 -12.5 5.1875 -11.03125 5.1875 -9.125 C 5.1875 -7.175781 5.613281 -5.695312 6.46875 -4.6875 C 7.320312 -3.675781 8.441406 -3.171875 9.828125 -3.171875 C 10.859375 -3.171875 11.726562 -3.4375 12.4375 -3.96875 C 13.15625 -4.507812 13.609375 -5.265625 13.796875 -6.234375 L 17.703125 -6.21875 C 17.566406 -5.101562 17.164062 -4.050781 16.5 -3.0625 C 15.84375 -2.082031 14.945312 -1.285156 13.8125 -0.671875 C 12.6875 -0.0546875 11.335938 0.25 9.765625 0.25 C 8.140625 0.25 6.6875 -0.117188 5.40625 -0.859375 C 4.125 -1.597656 3.113281 -2.664062 2.375 -4.0625 C 1.632812 -5.457031 1.265625 -7.144531 1.265625 -9.125 C 1.265625 -11.125 1.640625 -12.820312 2.390625 -14.21875 C 3.140625 -15.613281 4.15625 -16.675781 5.4375 -17.40625 C 6.71875 -18.144531 8.160156 -18.515625 9.765625 -18.515625 C 11.179688 -18.515625 12.453125 -18.253906 13.578125 -17.734375 C 14.710938 -17.210938 15.640625 -16.457031 16.359375 -15.46875 C 17.085938 -14.476562 17.535156 -13.28125 17.703125 -11.875 Z M 17.703125 -11.875 "/></g></g><g style="fill:#ffffff;fill-opacity:1;"><g transform="translate(21.44842, 65.976965)"><path style="stroke:none" d="M 0.21875 -3.578125 L 0.21875 -4.328125 L 3.765625 -4.328125 L 3.765625 -3.578125 L 2.4375 -3.578125 L 2.4375 0 L 1.53125 0 L 1.53125 -3.578125 Z M 0.21875 -3.578125 "/></g></g><g style="fill:#ffffff;fill-opacity:1;"><g transform="translate(28.397477, 65.976965)"><path style="stroke:none" d="M 0.375 0 L 0.375 -4.328125 L 2.078125 -4.328125 C 2.578125 -4.328125 2.960938 -4.195312 3.234375 -3.9375 C 3.503906 -3.6875 3.640625 -3.347656 3.640625 -2.921875 C 3.640625 -2.617188 3.570312 -2.363281 3.4375 -2.15625 C 3.300781 -1.945312 3.113281 -1.789062 2.875 -1.6875 L 3.796875 0 L 2.78125 0 L 1.953125 -1.53125 L 1.296875 -1.53125 L 1.296875 0 Z M 1.296875 -2.265625 L 1.90625 -2.265625 C 2.425781 -2.265625 2.6875 -2.484375 2.6875 -2.921875 C 2.6875 -3.359375 2.425781 -3.578125 1.90625 -3.578125 L 1.296875 -3.578125 Z M 1.296875 -2.265625 "/></g></g><g style="fill:#ffffff;fill-opacity:1;"><g transform="translate(35.27472, 65.976965)"><path style="stroke:none" d="M 1.125 0 L 0.140625 0 L 1.640625 -4.328125 L 2.8125 -4.328125 L 4.3125 0 L 3.328125 0 L 3 -0.984375 L 1.4375 -0.984375 Z M 1.671875 -1.703125 L 2.78125 -1.703125 L 2.25 -3.34375 L 2.203125 -3.34375 Z M 1.671875 -1.703125 "/></g></g><g style="fill:#ffffff;fill-opacity:1;"><g transform="translate(42.160397, 65.976965)"><path style="stroke:none" d="M 1.15625 -4.328125 L 2.203125 -1.046875 L 2.25 -1.046875 L 3.296875 -4.328125 L 4.3125 -4.328125 L 2.8125 0 L 1.640625 0 L 0.140625 -4.328125 Z M 1.15625 -4.328125 "/></g></g><g style="fill:#ffffff;fill-opacity:1;"><g transform="translate(49.582572, 65.976965)"><path style="stroke:none" d="M 0.375 0 L 0.375 -4.328125 L 3.296875 -4.328125 L 3.296875 -3.578125 L 1.296875 -3.578125 L 1.296875 -2.546875 L 3.140625 -2.546875 L 3.140625 -1.78125 L 1.296875 -1.78125 L 1.296875 -0.75 L 3.296875 -0.75 L 3.296875 0 Z M 0.375 0 "/></g></g><g style="fill:#ffffff;fill-opacity:1;"><g transform="translate(56.200019, 65.976965)"><path style="stroke:none" d="M 0.375 0 L 0.375 -4.328125 L 1.296875 -4.328125 L 1.296875 -0.75 L 3.140625 -0.75 L 3.140625 0 Z M 0.375 0 "/></g></g><g style="fill:#ffffff;fill-opacity:1;"><g transform="translate(86.150637, 75.57445)"><path style="stroke:none" d="M 0.671875 -9.09375 L 0.671875 -10.1875 L 8.3125 -10.1875 L 8.3125 -9.09375 L 5.109375 -9.09375 L 5.109375 0 L 3.875 0 L 3.875 -9.09375 Z M 0.671875 -9.09375 "/></g></g><g style="fill:#ffffff;fill-opacity:1;"><g transform="translate(99.334378, 75.57445)"><path style="stroke:none" d="M 1.234375 0 L 1.234375 -10.1875 L 4.671875 -10.1875 C 5.460938 -10.1875 6.113281 -10.050781 6.625 -9.78125 C 7.132812 -9.507812 7.515625 -9.132812 7.765625 -8.65625 C 8.015625 -8.1875 8.140625 -7.65625 8.140625 -7.0625 C 8.140625 -6.382812 7.984375 -5.789062 7.671875 -5.28125 C 7.359375 -4.78125 6.878906 -4.421875 6.234375 -4.203125 L 8.53125 0 L 7.09375 0 L 4.953125 -3.984375 C 4.867188 -3.984375 4.78125 -3.984375 4.6875 -3.984375 L 2.46875 -3.984375 L 2.46875 0 Z M 2.46875 -5.09375 L 4.65625 -5.09375 C 5.46875 -5.09375 6.046875 -5.265625 6.390625 -5.609375 C 6.742188 -5.960938 6.921875 -6.445312 6.921875 -7.0625 C 6.921875 -7.675781 6.742188 -8.164062 6.390625 -8.53125 C 6.046875 -8.90625 5.460938 -9.09375 4.640625 -9.09375 L 2.46875 -9.09375 Z M 2.46875 -5.09375 "/></g></g><g style="fill:#ffffff;fill-opacity:1;"><g transform="translate(112.478375, 75.57445)"><path style="stroke:none" d="M 1.65625 0 L 0.359375 0 L 4.09375 -10.1875 L 5.375 -10.1875 L 9.109375 0 L 7.8125 0 L 6.796875 -2.890625 L 2.671875 -2.890625 Z M 3.0625 -3.984375 L 6.40625 -3.984375 L 4.765625 -8.578125 L 4.6875 -8.578125 Z M 3.0625 -3.984375 "/></g></g><g style="fill:#ffffff;fill-opacity:1;"><g transform="translate(125.184921, 75.57445)"><path style="stroke:none" d="M 1.65625 -10.1875 L 4.671875 -1.609375 L 4.796875 -1.609375 L 7.8125 -10.1875 L 9.109375 -10.1875 L 5.375 0 L 4.09375 0 L 0.359375 -10.1875 Z M 1.65625 -10.1875 "/></g></g><g style="fill:#ffffff;fill-opacity:1;"><g transform="translate(138.845675, 75.57445)"><path style="stroke:none" d="M 1.234375 0 L 1.234375 -10.1875 L 7.375 -10.1875 L 7.375 -9.09375 L 2.46875 -9.09375 L 2.46875 -5.640625 L 7.0625 -5.640625 L 7.0625 -4.546875 L 2.46875 -4.546875 L 2.46875 -1.09375 L 7.453125 -1.09375 L 7.453125 0 Z M 1.234375 0 "/></g></g><g style="fill:#ffffff;fill-opacity:1;"><g transform="translate(151.413279, 75.57445)"><path style="stroke:none" d="M 1.234375 0 L 1.234375 -10.1875 L 2.46875 -10.1875 L 2.46875 -1.09375 L 7.203125 -1.09375 L 7.203125 0 Z M 1.234375 0 "/></g></g><g style="fill:#ffffff;fill-opacity:1;"><g transform="translate(163.483991, 75.57445)"><path style="stroke:none" d=""/></g></g><g style="fill:#ffffff;fill-opacity:1;"><g transform="translate(171.619355, 75.57445)"><path style="stroke:none" d="M 3.953125 0.140625 C 3.285156 0.140625 2.707031 0.0195312 2.21875 -0.21875 C 1.738281 -0.46875 1.367188 -0.804688 1.109375 -1.234375 C 0.847656 -1.660156 0.71875 -2.148438 0.71875 -2.703125 C 0.71875 -3.316406 0.898438 -3.835938 1.265625 -4.265625 C 1.640625 -4.691406 2.125 -5.113281 2.71875 -5.53125 C 2.375 -5.945312 2.085938 -6.34375 1.859375 -6.71875 C 1.640625 -7.101562 1.53125 -7.519531 1.53125 -7.96875 C 1.53125 -8.65625 1.753906 -9.210938 2.203125 -9.640625 C 2.648438 -10.066406 3.25 -10.28125 4 -10.28125 C 4.507812 -10.28125 4.945312 -10.179688 5.3125 -9.984375 C 5.675781 -9.785156 5.957031 -9.523438 6.15625 -9.203125 C 6.363281 -8.878906 6.46875 -8.53125 6.46875 -8.15625 C 6.46875 -7.664062 6.34375 -7.238281 6.09375 -6.875 C 5.851562 -6.519531 5.523438 -6.191406 5.109375 -5.890625 L 4.359375 -5.328125 L 6.578125 -2.625 C 6.710938 -2.882812 6.816406 -3.164062 6.890625 -3.46875 C 6.960938 -3.78125 7 -4.109375 7 -4.453125 L 8.140625 -4.453125 C 8.140625 -3.742188 8.050781 -3.171875 7.875 -2.734375 C 7.695312 -2.296875 7.515625 -1.957031 7.328125 -1.71875 L 8.734375 0 L 7.3125 0 L 6.59375 -0.859375 C 6.257812 -0.523438 5.851562 -0.273438 5.375 -0.109375 C 4.894531 0.0546875 4.421875 0.140625 3.953125 0.140625 Z M 5.890625 -1.71875 L 3.453125 -4.65625 L 3.078125 -4.375 C 2.617188 -4.039062 2.304688 -3.710938 2.140625 -3.390625 C 1.984375 -3.066406 1.90625 -2.835938 1.90625 -2.703125 C 1.90625 -2.390625 1.988281 -2.09375 2.15625 -1.8125 C 2.320312 -1.539062 2.554688 -1.316406 2.859375 -1.140625 C 3.160156 -0.972656 3.515625 -0.890625 3.921875 -0.890625 C 4.660156 -0.890625 5.316406 -1.164062 5.890625 -1.71875 Z M 3.640625 -6.203125 L 4.3125 -6.703125 C 4.601562 -6.890625 4.832031 -7.085938 5 -7.296875 C 5.175781 -7.515625 5.265625 -7.800781 5.265625 -8.15625 C 5.265625 -8.414062 5.148438 -8.664062 4.921875 -8.90625 C 4.703125 -9.144531 4.40625 -9.265625 4.03125 -9.265625 C 3.78125 -9.265625 3.554688 -9.195312 3.359375 -9.0625 C 3.160156 -8.9375 3.003906 -8.769531 2.890625 -8.5625 C 2.773438 -8.363281 2.71875 -8.160156 2.71875 -7.953125 C 2.71875 -7.671875 2.804688 -7.382812 2.984375 -7.09375 C 3.171875 -6.800781 3.390625 -6.503906 3.640625 -6.203125 Z M 3.640625 -6.203125 "/></g></g><g style="fill:#ffffff;fill-opacity:1;"><g transform="translate(184.763352, 75.57445)"><path style="stroke:none" d=""/></g></g><g style="fill:#ffffff;fill-opacity:1;"><g transform="translate(192.898716, 75.57445)"><path style="stroke:none" d="M 0.671875 -9.09375 L 0.671875 -10.1875 L 8.3125 -10.1875 L 8.3125 -9.09375 L 5.109375 -9.09375 L 5.109375 0 L 3.875 0 L 3.875 -9.09375 Z M 0.671875 -9.09375 "/></g></g><g style="fill:#ffffff;fill-opacity:1;"><g transform="translate(206.082458, 75.57445)"><path style="stroke:none" d="M 1.234375 0 L 1.234375 -10.1875 L 4.671875 -10.1875 C 5.460938 -10.1875 6.113281 -10.050781 6.625 -9.78125 C 7.132812 -9.507812 7.515625 -9.132812 7.765625 -8.65625 C 8.015625 -8.1875 8.140625 -7.65625 8.140625 -7.0625 C 8.140625 -6.382812 7.984375 -5.789062 7.671875 -5.28125 C 7.359375 -4.78125 6.878906 -4.421875 6.234375 -4.203125 L 8.53125 0 L 7.09375 0 L 4.953125 -3.984375 C 4.867188 -3.984375 4.78125 -3.984375 4.6875 -3.984375 L 2.46875 -3.984375 L 2.46875 0 Z M 2.46875 -5.09375 L 4.65625 -5.09375 C 5.46875 -5.09375 6.046875 -5.265625 6.390625 -5.609375 C 6.742188 -5.960938 6.921875 -6.445312 6.921875 -7.0625 C 6.921875 -7.675781 6.742188 -8.164062 6.390625 -8.53125 C 6.046875 -8.90625 5.460938 -9.09375 4.640625 -9.09375 L 2.46875 -9.09375 Z M 2.46875 -5.09375 "/></g></g><g style="fill:#ffffff;fill-opacity:1;"><g transform="translate(219.226454, 75.57445)"><path style="stroke:none" d="M 1.65625 0 L 0.359375 0 L 4.09375 -10.1875 L 5.375 -10.1875 L 9.109375 0 L 7.8125 0 L 6.796875 -2.890625 L 2.671875 -2.890625 Z M 3.0625 -3.984375 L 6.40625 -3.984375 L 4.765625 -8.578125 L 4.6875 -8.578125 Z M 3.0625 -3.984375 "/></g></g><g style="fill:#ffffff;fill-opacity:1;"><g transform="translate(232.887209, 75.57445)"><path style="stroke:none" d="M 9.3125 -10.1875 L 9.3125 0 L 8.109375 0 L 2.5625 -8 L 2.46875 -8 L 2.46875 0 L 1.234375 0 L 1.234375 -10.1875 L 2.421875 -10.1875 L 8 -2.171875 L 8.09375 -2.171875 L 8.09375 -10.1875 Z M 9.3125 -10.1875 "/></g></g><g style="fill:#ffffff;fill-opacity:1;"><g transform="translate(247.621247, 75.57445)"><path style="stroke:none" d="M 6.796875 -7.640625 C 6.742188 -8.140625 6.503906 -8.53125 6.078125 -8.8125 C 5.648438 -9.09375 5.128906 -9.234375 4.515625 -9.234375 C 3.835938 -9.234375 3.289062 -9.070312 2.875 -8.75 C 2.46875 -8.425781 2.265625 -8.019531 2.265625 -7.53125 C 2.265625 -7.164062 2.375 -6.867188 2.59375 -6.640625 C 2.820312 -6.421875 3.085938 -6.25 3.390625 -6.125 C 3.703125 -6.007812 3.984375 -5.914062 4.234375 -5.84375 L 5.265625 -5.5625 C 5.535156 -5.5 5.832031 -5.40625 6.15625 -5.28125 C 6.476562 -5.15625 6.789062 -4.988281 7.09375 -4.78125 C 7.394531 -4.570312 7.644531 -4.300781 7.84375 -3.96875 C 8.039062 -3.644531 8.140625 -3.242188 8.140625 -2.765625 C 8.140625 -2.210938 7.992188 -1.710938 7.703125 -1.265625 C 7.410156 -0.828125 6.988281 -0.476562 6.4375 -0.21875 C 5.894531 0.0390625 5.234375 0.171875 4.453125 0.171875 C 3.359375 0.171875 2.488281 -0.0820312 1.84375 -0.59375 C 1.207031 -1.113281 0.859375 -1.789062 0.796875 -2.625 L 2.0625 -2.625 C 2.101562 -2.238281 2.234375 -1.921875 2.453125 -1.671875 C 2.679688 -1.421875 2.96875 -1.234375 3.3125 -1.109375 C 3.664062 -0.992188 4.046875 -0.9375 4.453125 -0.9375 C 4.921875 -0.9375 5.34375 -1.007812 5.71875 -1.15625 C 6.09375 -1.3125 6.390625 -1.53125 6.609375 -1.8125 C 6.828125 -2.09375 6.9375 -2.414062 6.9375 -2.78125 C 6.9375 -3.125 6.84375 -3.398438 6.65625 -3.609375 C 6.46875 -3.816406 6.21875 -3.988281 5.90625 -4.125 C 5.601562 -4.257812 5.269531 -4.375 4.90625 -4.46875 L 3.65625 -4.828125 C 2.863281 -5.054688 2.234375 -5.382812 1.765625 -5.8125 C 1.304688 -6.238281 1.078125 -6.796875 1.078125 -7.484375 C 1.078125 -8.046875 1.226562 -8.539062 1.53125 -8.96875 C 1.84375 -9.394531 2.257812 -9.726562 2.78125 -9.96875 C 3.3125 -10.207031 3.898438 -10.328125 4.546875 -10.328125 C 5.203125 -10.328125 5.785156 -10.207031 6.296875 -9.96875 C 6.804688 -9.738281 7.210938 -9.421875 7.515625 -9.015625 C 7.816406 -8.609375 7.976562 -8.148438 8 -7.640625 Z M 6.796875 -7.640625 "/></g></g><g style="fill:#ffffff;fill-opacity:1;"><g transform="translate(260.745365, 75.57445)"><path style="stroke:none" d="M 1.234375 0 L 1.234375 -10.1875 L 7.34375 -10.1875 L 7.34375 -9.09375 L 2.46875 -9.09375 L 2.46875 -5.640625 L 6.875 -5.640625 L 6.875 -4.546875 L 2.46875 -4.546875 L 2.46875 0 Z M 1.234375 0 "/></g></g><g style="fill:#ffffff;fill-opacity:1;"><g transform="translate(273.153965, 75.57445)"><path style="stroke:none" d="M 1.234375 0 L 1.234375 -10.1875 L 7.375 -10.1875 L 7.375 -9.09375 L 2.46875 -9.09375 L 2.46875 -5.640625 L 7.0625 -5.640625 L 7.0625 -4.546875 L 2.46875 -4.546875 L 2.46875 -1.09375 L 7.453125 -1.09375 L 7.453125 0 Z M 1.234375 0 "/></g></g><g style="fill:#ffffff;fill-opacity:1;"><g transform="translate(285.72158, 75.57445)"><path style="stroke:none" d="M 1.234375 0 L 1.234375 -10.1875 L 4.671875 -10.1875 C 5.460938 -10.1875 6.113281 -10.050781 6.625 -9.78125 C 7.132812 -9.507812 7.515625 -9.132812 7.765625 -8.65625 C 8.015625 -8.1875 8.140625 -7.65625 8.140625 -7.0625 C 8.140625 -6.382812 7.984375 -5.789062 7.671875 -5.28125 C 7.359375 -4.78125 6.878906 -4.421875 6.234375 -4.203125 L 8.53125 0 L 7.09375 0 L 4.953125 -3.984375 C 4.867188 -3.984375 4.78125 -3.984375 4.6875 -3.984375 L 2.46875 -3.984375 L 2.46875 0 Z M 2.46875 -5.09375 L 4.65625 -5.09375 C 5.46875 -5.09375 6.046875 -5.265625 6.390625 -5.609375 C 6.742188 -5.960938 6.921875 -6.445312 6.921875 -7.0625 C 6.921875 -7.675781 6.742188 -8.164062 6.390625 -8.53125 C 6.046875 -8.90625 5.460938 -9.09375 4.640625 -9.09375 L 2.46875 -9.09375 Z M 2.46875 -5.09375 "/></g></g></g></svg>